<?xml version="1.0" encoding="utf-8"?>
<!-- Generator: Adobe Illustrator 27.5.0, SVG Export Plug-In . SVG Version: 6.00 Build 0)  -->
<svg version="1.1" id="Layer_1" xmlns="http://www.w3.org/2000/svg" xmlns:xlink="http://www.w3.org/1999/xlink" x="0px" y="0px"
	 viewBox="0 0 4000 2428" style="enable-background:new 0 0 4000 2428;" xml:space="preserve">
<g>
	<g>
		<defs>
			<rect id="SVGID_1_" x="0" width="4000" height="2428"/>
		</defs>
		<clipPath id="SVGID_00000170279783470700642550000010946741279817812661_">
			<use xlink:href="#SVGID_1_"  style="overflow:visible;"/>
		</clipPath>
		
			<linearGradient id="SVGID_00000070817715173325497390000015340388302852406203_" gradientUnits="userSpaceOnUse" x1="2000" y1="1681.4521" x2="2000" y2="-55.7276">
			<stop  offset="0" style="stop-color:#000000"/>
			<stop  offset="1" style="stop-color:#3D3D3D"/>
		</linearGradient>
		
			<rect x="0" style="clip-path:url(#SVGID_00000170279783470700642550000010946741279817812661_);fill:url(#SVGID_00000070817715173325497390000015340388302852406203_);" width="4000" height="2428"/>
	</g>
	<rect x="0" style="fill:none;stroke:#000000;stroke-width:0.5;stroke-miterlimit:2.6131;" width="4000" height="2428"/>
	<g>
		<defs>
			<path id="SVGID_00000086683413102060530170000018182026716579779241_" d="M2698.355,2428H0v-695.804l673.037-488.903
				c184.116-133.742,371.77-79.647,555.345,53.702l632.413,459.394l706.342,513.093
				C2630.598,2315.582,2672.957,2368.979,2698.355,2428"/>
		</defs>
		<clipPath id="SVGID_00000091710004894277394300000016240307922709498271_">
			<use xlink:href="#SVGID_00000086683413102060530170000018182026716579779241_"  style="overflow:visible;"/>
		</clipPath>
		
			<linearGradient id="SVGID_00000024692576639509966060000005147182252905508493_" gradientUnits="userSpaceOnUse" x1="1566.8035" y1="2281.1697" x2="979.6754" y2="898.7928">
			<stop  offset="0" style="stop-color:#000000"/>
			<stop  offset="1" style="stop-color:#666666"/>
		</linearGradient>
		
			<rect x="0" y="1109.551" style="clip-path:url(#SVGID_00000091710004894277394300000016240307922709498271_);fill:url(#SVGID_00000024692576639509966060000005147182252905508493_);" width="2698.355" height="1318.449"/>
	</g>
	<g>
		<defs>
			<path id="SVGID_00000172428211291170637080000016470261109934391180_" d="M4000,777.323V2428H1744.849l-136.52-420.091
				c-70.326-216.402,39.12-378.124,222.694-511.474l632.414-459.394l706.34-513.096c184.115-133.743,371.77-79.647,555.344,53.702
				L4000,777.323z"/>
		</defs>
		<clipPath id="SVGID_00000180363005136604635450000014727500172235314817_">
			<use xlink:href="#SVGID_00000172428211291170637080000016470261109934391180_"  style="overflow:visible;"/>
		</clipPath>
		
			<linearGradient id="SVGID_00000032606239680796424640000015943531429373592238_" gradientUnits="userSpaceOnUse" x1="2871.364" y1="1984.7518" x2="2649.2954" y2="735.9133">
			<stop  offset="0" style="stop-color:#2B2B2B"/>
			<stop  offset="1" style="stop-color:#666666"/>
		</linearGradient>
		
			<rect x="1538.004" y="390.202" style="clip-path:url(#SVGID_00000180363005136604635450000014727500172235314817_);fill:url(#SVGID_00000032606239680796424640000015943531429373592238_);" width="2461.997" height="2037.798"/>
	</g>
	<g>
		<defs>
			<path id="SVGID_00000031189132488728460350000016584936033808990903_" d="M4000,777.323V2428H2247.357l-51.706-159.104
				c-70.325-216.402,39.121-378.124,222.694-511.474l632.415-459.395l706.339-513.095c51.796-37.625,103.872-60.384,156.057-70.694
				L4000,777.323z"/>
		</defs>
		<clipPath id="SVGID_00000110436460032561292280000016469659690202012318_">
			<use xlink:href="#SVGID_00000031189132488728460350000016584936033808990903_"  style="overflow:visible;"/>
		</clipPath>
		
			<linearGradient id="SVGID_00000132072102370048800120000017530234860296709037_" gradientUnits="userSpaceOnUse" x1="3180.7468" y1="2431.4658" x2="3025.6509" y2="1301.4503">
			<stop  offset="0" style="stop-color:#2B2B2B"/>
			<stop  offset="1" style="stop-color:#666666"/>
		</linearGradient>
		
			<rect x="2125.326" y="714.237" style="clip-path:url(#SVGID_00000110436460032561292280000016469659690202012318_);fill:url(#SVGID_00000132072102370048800120000017530234860296709037_);" width="1874.673" height="1713.763"/>
	</g>
	<g>
		<defs>
			<path id="SVGID_00000105391723880085907470000007981462967142940302_" d="M4000,1294.71V2428H2651.616
				c20.494-128.94,112.252-235.345,239.85-328.034l632.415-459.395L4000,1294.71z"/>
		</defs>
		<clipPath id="SVGID_00000097479660581328253180000007644089550519032198_">
			<use xlink:href="#SVGID_00000105391723880085907470000007981462967142940302_"  style="overflow:visible;"/>
		</clipPath>
		
			<linearGradient id="SVGID_00000007406305720771545150000000867705584275485588_" gradientUnits="userSpaceOnUse" x1="3542.8936" y1="2491.7334" x2="3211.1487" y2="1528.4041">
			<stop  offset="0" style="stop-color:#2B2B2B"/>
			<stop  offset="1" style="stop-color:#666666"/>
		</linearGradient>
		
			<rect x="2651.616" y="1294.71" style="clip-path:url(#SVGID_00000097479660581328253180000007644089550519032198_);fill:url(#SVGID_00000007406305720771545150000000867705584275485588_);" width="1348.384" height="1133.29"/>
	</g>
</g>
</svg>
